<?xml version="1.0" encoding="UTF-8"?>
<svg xmlns="http://www.w3.org/2000/svg" viewBox="0 0 64 64" role="img" aria-label="Spot dalmatian">
  <!-- Body -->
  <path fill="#1a1a1a" d="M8 42c0-6 4-10 10-11l4-1 6-7c2-2 5-3 8-3 4 0 7 2 9 5l3 5c4 1 7 3 9 6 2 3 2 7 0 10-1 2-3 3-5 3l-2 5c-1 2-3 3-5 3h-3l-1 4h-5l-1-4H22l-1 4h-5l-1-4h-2c-3 0-5-2-5-5z"/>
  <!-- Ear -->
  <path fill="#1a1a1a" d="M30 18c-3-2-7-1-9 1-1 1-1 3 0 4 2 1 5 1 7-1l2-4z"/>
  <!-- Eye -->
  <circle cx="42" cy="22" r="1.6" fill="#fff"/>
  <!-- Spots -->
  <circle cx="20" cy="36" r="2.2" fill="#fff"/>
  <circle cx="28" cy="40" r="1.8" fill="#fff"/>
  <circle cx="36" cy="34" r="2.4" fill="#fff"/>
  <circle cx="44" cy="38" r="1.7" fill="#fff"/>
  <circle cx="50" cy="32" r="1.5" fill="#fff"/>
  <circle cx="33" cy="48" r="1.6" fill="#fff"/>
  <circle cx="45" cy="46" r="2.0" fill="#fff"/>
  <circle cx="22" cy="46" r="1.4" fill="#fff"/>
</svg>
