<?xml version="1.0" encoding="UTF-8"?>
<svg xmlns="http://www.w3.org/2000/svg" viewBox="0 0 64 64" width="100%" role="img" aria-label="Sitting Dalmatian puppy">
  <defs>
    <path id="b1" d="M0,-4 C2.5,-5.5 5.5,-2 4.5,1.5 C3.5,4.5 1,5.5 -1.5,4 C-4.5,2.5 -5,-1 -3.5,-3 C-2,-5 0,-4 0,-4Z"/>
    <path id="b2" d="M0,-3 C3,-5.5 6.5,-1 5,3 C3.5,6 -1,5.5 -3,3.5 C-5.5,1 -4,-2.5 -2,-4.5 C-1,-5.5 0,-3 0,-3Z"/>
    <path id="b3" d="M0,-5 C2,-6.5 5,-3 5,0.5 C5,4 2.5,6 0,5.5 C-3,5 -4.5,2 -4,-1 C-3.5,-4.5 -1.5,-4 0,-5Z"/>
    <path id="b4" d="M0,-2.5 C2,-4 5,-2 5.5,1 C6,3.5 3.5,5 1,5.5 C-2,6 -5,3.5 -5,0.5 C-5,-2.5 -2,-1 0,-2.5Z"/>
    <path id="b5" d="M0,-3.5 C1.5,-5.5 4,-4 5,-1 C6,2 4,5.5 1,6 C-2,6.5 -5,4 -4.5,0.5 C-4,-3 -1.5,-1.5 0,-3.5Z"/>
  </defs>

  <!-- Tail -->
  <path fill="#e6e8eb"
        d="M39 50 C 44 50 48.5 45 48.5 40 C 48.5 38.3 47.3 38.3 47 40
           C 46.3 42.5 43 45 38 49 Z"/>

  <!-- Body -->
  <ellipse fill="#e6e8eb" cx="32" cy="42" rx="11" ry="12"/>
  <!-- Front legs -->
  <path fill="#e6e8eb" d="M26 51 Q25 56 25 59 Q25 60 27 60 L30 60 Q31 60 31 59 Q31 56 30 51 Z"/>
  <path fill="#e6e8eb" d="M34 51 Q33 56 33 59 Q33 60 34 60 L37 60 Q39 60 39 59 Q39 56 38 51 Z"/>

  <!-- Head -->
  <ellipse fill="#e6e8eb" cx="32" cy="20" rx="9" ry="8"/>
  <ellipse fill="#e6e8eb" cx="32" cy="27" rx="5.5" ry="4"/>

  <!-- Ears -->
  <path fill="#1a1a1a" stroke="white" stroke-width="1" stroke-linejoin="round"
        d="M25 15 Q22 15 21 18 Q20 21 21 24 Q23 26 25 24 Q27 22 26 18 Q26 15 25 15 Z"/>
  <path fill="none" stroke="white" stroke-width="0.5" stroke-linecap="round" opacity="0.5"
        d="M22 20 Q24 21 26 20"/>
  <path fill="#1a1a1a" stroke="white" stroke-width="1" stroke-linejoin="round"
        d="M39 15 Q42 15 43 18 Q44 21 43 24 Q41 26 39 24 Q37 22 38 18 Q38 15 39 15 Z"/>
  <path fill="none" stroke="white" stroke-width="0.5" stroke-linecap="round" opacity="0.5"
        d="M42 20 Q40 21 38 20"/>

  <!-- Eyes -->
  <circle fill="#1a1a1a" cx="28.5" cy="18" r="2"/>
  <circle fill="white"   cx="27.8" cy="17.3" r="0.7"/>
  <circle fill="#1a1a1a" cx="35.5" cy="18" r="2"/>
  <circle fill="white"   cx="34.8" cy="17.3" r="0.7"/>
  <!-- Nose -->
  <ellipse fill="#1a1a1a" cx="32" cy="26" rx="3" ry="2"/>
  <ellipse fill="#444"    cx="31"  cy="25.2" rx="1" ry="0.6"/>
  <!-- Mouth -->
  <path fill="none" stroke="#1a1a1a" stroke-width="0.7" stroke-linecap="round"
        d="M29.5 29 Q32 31 34.5 29"/>

  <!-- Body spots -->
  <use href="#b3" transform="translate(25,35) rotate(-25) scale(0.28)" fill="#1a1a1a"/>
  <use href="#b1" transform="translate(31,34) rotate(10)  scale(0.26)" fill="#1a1a1a"/>
  <use href="#b5" transform="translate(37,35) rotate(30)  scale(0.26)" fill="#1a1a1a"/>
  <use href="#b2" transform="translate(40,38) rotate(-10) scale(0.26)" fill="#1a1a1a"/>
  <use href="#b4" transform="translate(23,40) rotate(15)  scale(0.26)" fill="#1a1a1a"/>
  <use href="#b1" transform="translate(29,40) rotate(-30) scale(0.26)" fill="#1a1a1a"/>
  <use href="#b3" transform="translate(35,42) rotate(20)  scale(0.26)" fill="#1a1a1a"/>
  <use href="#b5" transform="translate(40,44) rotate(-5)  scale(0.24)" fill="#1a1a1a"/>
  <use href="#b4" transform="translate(24,46) rotate(-20) scale(0.26)" fill="#1a1a1a"/>
  <use href="#b1" transform="translate(30,46) rotate(35)  scale(0.26)" fill="#1a1a1a"/>
  <use href="#b3" transform="translate(36,47) rotate(-15) scale(0.28)" fill="#1a1a1a"/>
  <use href="#b5" transform="translate(26,50) rotate(10)  scale(0.24)" fill="#1a1a1a"/>
  <use href="#b2" transform="translate(33,51) rotate(-25) scale(0.26)" fill="#1a1a1a"/>
  <use href="#b1" transform="translate(40,50) rotate(15)  scale(0.22)" fill="#1a1a1a"/>
  <use href="#b3" transform="translate(28,53) rotate(5)   scale(0.22)" fill="#1a1a1a"/>
  <use href="#b4" transform="translate(36,53) rotate(-10) scale(0.22)" fill="#1a1a1a"/>

  <!-- Head spot -->
  <use href="#b2" transform="translate(32,14) rotate(15) scale(0.22)" fill="#1a1a1a"/>

  <!-- Tail spots -->
  <use href="#b4" transform="translate(44,47) rotate(60) scale(0.16)" fill="#1a1a1a"/>
  <use href="#b1" transform="translate(48,43) rotate(50) scale(0.14)" fill="#1a1a1a"/>
</svg>
